<mxfile host="app.diagrams.net" agent="Mozilla/5.0 (Windows NT 10.0; Win64; x64) AppleWebKit/537.36 (KHTML, like Gecko) Chrome/128.0.0.0 Safari/537.36" version="24.7.7">
  <diagram name="Страница — 1" id="mZZviekSQKG8e5pyIaOZ">
    <mxGraphModel dx="1120" dy="529" grid="1" gridSize="10" guides="1" tooltips="1" connect="1" arrows="1" fold="1" page="1" pageScale="1" pageWidth="827" pageHeight="1169" math="0" shadow="0">
      <root>
        <mxCell id="0" />
        <mxCell id="1" parent="0" />
        <mxCell id="li35l3-0IMBntMyqn0oq-4" value="" style="edgeStyle=orthogonalEdgeStyle;rounded=0;orthogonalLoop=1;jettySize=auto;html=1;" parent="1" source="li35l3-0IMBntMyqn0oq-1" target="li35l3-0IMBntMyqn0oq-2" edge="1">
          <mxGeometry relative="1" as="geometry" />
        </mxCell>
        <mxCell id="li35l3-0IMBntMyqn0oq-1" value="start" style="ellipse;whiteSpace=wrap;html=1;" parent="1" vertex="1">
          <mxGeometry x="300" y="10" width="120" height="80" as="geometry" />
        </mxCell>
        <mxCell id="li35l3-0IMBntMyqn0oq-6" value="" style="edgeStyle=orthogonalEdgeStyle;rounded=0;orthogonalLoop=1;jettySize=auto;html=1;" parent="1" source="li35l3-0IMBntMyqn0oq-2" target="li35l3-0IMBntMyqn0oq-5" edge="1">
          <mxGeometry relative="1" as="geometry" />
        </mxCell>
        <mxCell id="li35l3-0IMBntMyqn0oq-2" value="array[2,5,13,7,6,4]&lt;br style=&quot;border-color: var(--border-color);&quot;&gt;noumbers=array.length&lt;br&gt;presum=0&lt;br&gt;sum=0&lt;br&gt;index=0" style="rounded=0;whiteSpace=wrap;html=1;" parent="1" vertex="1">
          <mxGeometry x="285" y="120" width="150" height="100" as="geometry" />
        </mxCell>
        <mxCell id="li35l3-0IMBntMyqn0oq-9" value="yes" style="edgeStyle=orthogonalEdgeStyle;rounded=0;orthogonalLoop=1;jettySize=auto;html=1;" parent="1" source="li35l3-0IMBntMyqn0oq-5" target="li35l3-0IMBntMyqn0oq-8" edge="1">
          <mxGeometry relative="1" as="geometry" />
        </mxCell>
        <mxCell id="li35l3-0IMBntMyqn0oq-15" value="" style="edgeStyle=orthogonalEdgeStyle;rounded=0;orthogonalLoop=1;jettySize=auto;html=1;" parent="1" source="li35l3-0IMBntMyqn0oq-5" target="li35l3-0IMBntMyqn0oq-14" edge="1">
          <mxGeometry relative="1" as="geometry" />
        </mxCell>
        <mxCell id="li35l3-0IMBntMyqn0oq-5" value="index&amp;lt;=noumbers" style="rhombus;whiteSpace=wrap;html=1;" parent="1" vertex="1">
          <mxGeometry x="300" y="250" width="120" height="80" as="geometry" />
        </mxCell>
        <mxCell id="li35l3-0IMBntMyqn0oq-12" value="" style="edgeStyle=orthogonalEdgeStyle;rounded=0;orthogonalLoop=1;jettySize=auto;html=1;" parent="1" source="li35l3-0IMBntMyqn0oq-8" target="li35l3-0IMBntMyqn0oq-11" edge="1">
          <mxGeometry relative="1" as="geometry" />
        </mxCell>
        <mxCell id="li35l3-0IMBntMyqn0oq-8" value="presum=+array[index]" style="rounded=0;whiteSpace=wrap;html=1;" parent="1" vertex="1">
          <mxGeometry x="300" y="390" width="120" height="60" as="geometry" />
        </mxCell>
        <mxCell id="li35l3-0IMBntMyqn0oq-13" style="edgeStyle=orthogonalEdgeStyle;rounded=0;orthogonalLoop=1;jettySize=auto;html=1;exitX=0;exitY=0.5;exitDx=0;exitDy=0;entryX=0.5;entryY=0;entryDx=0;entryDy=0;" parent="1" source="li35l3-0IMBntMyqn0oq-11" target="li35l3-0IMBntMyqn0oq-5" edge="1">
          <mxGeometry relative="1" as="geometry">
            <Array as="points">
              <mxPoint x="280" y="510" />
              <mxPoint x="280" y="230" />
              <mxPoint x="360" y="230" />
            </Array>
          </mxGeometry>
        </mxCell>
        <mxCell id="li35l3-0IMBntMyqn0oq-11" value="index=+1" style="rounded=0;whiteSpace=wrap;html=1;" parent="1" vertex="1">
          <mxGeometry x="300" y="480" width="120" height="60" as="geometry" />
        </mxCell>
        <mxCell id="li35l3-0IMBntMyqn0oq-19" value="" style="edgeStyle=orthogonalEdgeStyle;rounded=0;orthogonalLoop=1;jettySize=auto;html=1;" parent="1" source="li35l3-0IMBntMyqn0oq-14" target="li35l3-0IMBntMyqn0oq-18" edge="1">
          <mxGeometry relative="1" as="geometry" />
        </mxCell>
        <mxCell id="li35l3-0IMBntMyqn0oq-14" value="sum=presum/noumbers" style="rounded=0;whiteSpace=wrap;html=1;" parent="1" vertex="1">
          <mxGeometry x="480" y="260" width="140" height="60" as="geometry" />
        </mxCell>
        <mxCell id="li35l3-0IMBntMyqn0oq-17" value="end" style="ellipse;whiteSpace=wrap;html=1;" parent="1" vertex="1">
          <mxGeometry x="490" y="470" width="120" height="80" as="geometry" />
        </mxCell>
        <mxCell id="li35l3-0IMBntMyqn0oq-20" value="" style="edgeStyle=orthogonalEdgeStyle;rounded=0;orthogonalLoop=1;jettySize=auto;html=1;" parent="1" source="li35l3-0IMBntMyqn0oq-18" target="li35l3-0IMBntMyqn0oq-17" edge="1">
          <mxGeometry relative="1" as="geometry" />
        </mxCell>
        <mxCell id="li35l3-0IMBntMyqn0oq-18" value="sum" style="shape=document;whiteSpace=wrap;html=1;boundedLbl=1;" parent="1" vertex="1">
          <mxGeometry x="490" y="360" width="120" height="80" as="geometry" />
        </mxCell>
        <mxCell id="9BNnF05r1WteyfFy1s-b-5" value="&lt;h1 style=&quot;margin-top: 0px;&quot;&gt;&lt;span style=&quot;font-size: 12px; font-weight: 400; text-align: center;&quot;&gt;array[2,5,13,7,6,4]&lt;/span&gt;&lt;br style=&quot;font-size: 12px; font-weight: 400; text-align: center; border-color: var(--border-color);&quot;&gt;&lt;span style=&quot;font-size: 12px; font-weight: 400; text-align: center;&quot;&gt;numbers=array.length&lt;/span&gt;&lt;br style=&quot;font-size: 12px; font-weight: 400; text-align: center;&quot;&gt;&lt;span style=&quot;font-size: 12px; font-weight: 400; text-align: center;&quot;&gt;presum=0&lt;/span&gt;&lt;br style=&quot;font-size: 12px; font-weight: 400; text-align: center;&quot;&gt;&lt;span style=&quot;font-size: 12px; font-weight: 400; text-align: center;&quot;&gt;sum=0&lt;/span&gt;&lt;br style=&quot;font-size: 12px; font-weight: 400; text-align: center;&quot;&gt;&lt;span style=&quot;font-size: 12px; font-weight: 400; text-align: center;&quot;&gt;index=0&lt;/span&gt;&lt;br&gt;&lt;/h1&gt;&lt;div&gt;&lt;span style=&quot;font-size: 12px; font-weight: 400; text-align: center;&quot;&gt;while numbers &amp;lt;= index:&lt;/span&gt;&lt;/div&gt;&lt;div&gt;&lt;span style=&quot;font-size: 12px; font-weight: 400; text-align: center;&quot;&gt;&lt;span style=&quot;white-space: pre;&quot;&gt;&#x9;&lt;/span&gt;presum =+ array[index]&lt;br&gt;&lt;/span&gt;&lt;/div&gt;&lt;div&gt;&lt;span style=&quot;font-size: 12px; font-weight: 400; text-align: center;&quot;&gt;&lt;span style=&quot;white-space: pre;&quot;&gt;&#x9;&lt;/span&gt;index =+ 1&lt;br&gt;&lt;/span&gt;&lt;/div&gt;&lt;div&gt;&lt;span style=&quot;font-size: 12px; font-weight: 400; text-align: center;&quot;&gt;sum = presum/numbers&lt;/span&gt;&lt;/div&gt;&lt;div&gt;&lt;span style=&quot;font-size: 12px; font-weight: 400; text-align: center;&quot;&gt;print(sum)&lt;/span&gt;&lt;/div&gt;" style="text;html=1;whiteSpace=wrap;overflow=hidden;rounded=0;" vertex="1" parent="1">
          <mxGeometry x="80" y="585" width="280" height="325" as="geometry" />
        </mxCell>
      </root>
    </mxGraphModel>
  </diagram>
</mxfile>
